<svg width="180" height="180" viewBox="0 0 180 180" fill="none" xmlns="http://www.w3.org/2000/svg">
  <defs>
    <linearGradient id="bg" x1="0" y1="0" x2="180" y2="180" gradientUnits="userSpaceOnUse">
      <stop offset="0%" stop-color="#161412"/>
      <stop offset="100%" stop-color="#0d0b09"/>
    </linearGradient>
    <linearGradient id="accent" x1="50" y1="40" x2="130" y2="140" gradientUnits="userSpaceOnUse">
      <stop offset="0%" stop-color="#e8885e"/>
      <stop offset="100%" stop-color="#c45a30"/>
    </linearGradient>
    <clipPath id="rounded">
      <rect width="180" height="180" rx="40"/>
    </clipPath>
  </defs>
  <g clip-path="url(#rounded)">
    <rect width="180" height="180" fill="url(#bg)"/>
    <!-- Film strip perforations left edge -->
    <g opacity="0.1">
      <rect x="12" y="8" width="5" height="9" rx="1.5" fill="#e07850"/>
      <rect x="12" y="24" width="5" height="9" rx="1.5" fill="#e07850"/>
      <rect x="12" y="40" width="5" height="9" rx="1.5" fill="#e07850"/>
      <rect x="12" y="56" width="5" height="9" rx="1.5" fill="#e07850"/>
      <rect x="12" y="72" width="5" height="9" rx="1.5" fill="#e07850"/>
      <rect x="12" y="88" width="5" height="9" rx="1.5" fill="#e07850"/>
      <rect x="12" y="104" width="5" height="9" rx="1.5" fill="#e07850"/>
      <rect x="12" y="120" width="5" height="9" rx="1.5" fill="#e07850"/>
      <rect x="12" y="136" width="5" height="9" rx="1.5" fill="#e07850"/>
      <rect x="12" y="152" width="5" height="9" rx="1.5" fill="#e07850"/>
      <rect x="12" y="168" width="5" height="9" rx="1.5" fill="#e07850"/>
    </g>
    <!-- Film strip perforations right edge -->
    <g opacity="0.1">
      <rect x="163" y="8" width="5" height="9" rx="1.5" fill="#e07850"/>
      <rect x="163" y="24" width="5" height="9" rx="1.5" fill="#e07850"/>
      <rect x="163" y="40" width="5" height="9" rx="1.5" fill="#e07850"/>
      <rect x="163" y="56" width="5" height="9" rx="1.5" fill="#e07850"/>
      <rect x="163" y="72" width="5" height="9" rx="1.5" fill="#e07850"/>
      <rect x="163" y="88" width="5" height="9" rx="1.5" fill="#e07850"/>
      <rect x="163" y="104" width="5" height="9" rx="1.5" fill="#e07850"/>
      <rect x="163" y="120" width="5" height="9" rx="1.5" fill="#e07850"/>
      <rect x="163" y="136" width="5" height="9" rx="1.5" fill="#e07850"/>
      <rect x="163" y="152" width="5" height="9" rx="1.5" fill="#e07850"/>
      <rect x="163" y="168" width="5" height="9" rx="1.5" fill="#e07850"/>
    </g>
    <!-- Camera lens / aperture shape -->
    <circle cx="90" cy="90" r="42" stroke="url(#accent)" stroke-width="4" fill="none"/>
    <circle cx="90" cy="90" r="28" stroke="url(#accent)" stroke-width="2.5" fill="none" opacity="0.6"/>
    <circle cx="90" cy="90" r="14" fill="url(#accent)"/>
    <!-- Aperture blades hint -->
    <g opacity="0.15">
      <line x1="90" y1="48" x2="90" y2="62" stroke="#e07850" stroke-width="1.5"/>
      <line x1="126.4" y1="69" x2="114.3" y2="76" stroke="#e07850" stroke-width="1.5"/>
      <line x1="126.4" y1="111" x2="114.3" y2="104" stroke="#e07850" stroke-width="1.5"/>
      <line x1="90" y1="132" x2="90" y2="118" stroke="#e07850" stroke-width="1.5"/>
      <line x1="53.6" y1="111" x2="65.7" y2="104" stroke="#e07850" stroke-width="1.5"/>
      <line x1="53.6" y1="69" x2="65.7" y2="76" stroke="#e07850" stroke-width="1.5"/>
    </g>
  </g>
</svg>
